<svg width="220" height="42" xmlns="http://www.w3.org/2000/svg">
  <g fill="#002E38" fill-rule="evenodd">
    <path d="M53.1644353.45791248L34.4681306 6.40679766v1.96631373c0 8.09555221.9757644 14.21831651 2.9823438 18.71605111.3638116.8157519.7807978 1.6268795 1.2388292 2.4084106l.0970208.1655551.164181-.1008129c.2481345-.1544565.6446013-.4189747 1.0270759-.6751689.3348956-.2228982.6511284-.4337729.8535601-.5614075l.1501887-.0952636-.0886175-.1535315c-.3871321-.6677698-.7378896-1.3549622-1.0429377-2.03938-1.8563841-4.1601501-2.7584547-9.9379308-2.7584547-17.66445241v-.07029156L53.1644353 3.1891093l16.0721836 5.11093586v.07306623c0 2.80241321-.1231423 5.39487671-.3656812 7.70617401l-.0214575.2034756h2.6343874l.0167934-.1655551c.2378748-2.3538422.3591475-4.960179.3591475-7.74409451v-1.9690884L53.1644353.45791248zM68.7255055 18.4408041h-.1595169l-.02519.1563063c-.4542988 2.887503-1.148342 5.3902523-2.0625418 7.439806-.9375202 2.1022724-2.1968753 4.044539-3.7407593 5.7740812-1.2462877 1.3965822-2.6838293 2.6609052-4.2724778 3.7587483-2.7015542 1.8655009-5.0224967 2.6609053-5.2818356 2.74692l-.0195878.0073991-.0485104-.0175729c-.2537367-.08324-2.5494958-.8684707-5.2603715-2.7422955-1.5877237-1.0978431-3.0233956-2.3612413-4.2687585-3.7578235-.3927276-.4402471-.7854619-.923039-1.198722-1.4742728l-.1100684-.1461325-2.1315782 1.514968.1128761.1516818c.4692226.6270746.9151313 1.1755337 1.362903 1.6768235 1.3834224 1.5510386 2.9758102 2.9531701 4.733317 4.1675492 2.9506201 2.0403049 5.4590706 2.9217239 5.9292313 3.0761804.0195878.0064742.4850844.1674049.7182951.2312222.0597082.0175729.1212728.0314462.1212728.0314462l.0391756.008324.0401204-.008324s.0652971-.0138733.1259302-.0314462c.2322792-.0638173.6977824-.224748.7155006-.2312222.4710988-.1544565 2.9702146-1.032176 5.9208413-3.070631 1.7593698-1.215304 3.3536206-2.6174355 4.7370429-4.1684742 1.7239268-1.9293181 3.1287999-4.0972576 4.1754702-6.4446256 1.0503963-2.354767 1.8022781-5.0915132 2.2976222-8.3665446l.0307856-.1970014-.2014937-.0147982c-.7789414-.0564182-1.6688827-.0693667-2.2789724-.0702916z"/>
    <path d="M52.085308 8.2173601s.5858312 1.50016974.8936739 1.63242885l4.2323707 1.86272615s-2.176356.4735431-3.376941.8333249l-.2835841.0869395s.4617639.7685827 1.173532 1.2005058c.7863934-.2228982 2.232325-.591004 2.232325-.591004-2.0420225 3.9825715-6.2398751 6.5861336-10.8034089 6.5861336-.2098969 0-1.0802503-.0120235-1.6278374.033296-.4729551.0406951-.7015084.4282236-.2360118.632624.8330408.4439467 1.4365968 1.1866324 1.7061953 2.0532533.1697832.5392102-.1287313.8647711-.5028092 1.1598106-1.8283996 1.398432-9.9871614 7.3917118-9.9871614 7.3917118.3731464.6464973.7966597 1.2689475.7966597 1.2689475l10.2782106-7.2834998c5.5337026-3.6930812 11.9983983-5.6445967 18.6972428-5.6445967h8.0188328c.0886175-.5586329.2369433-1.4853715.2369433-1.4853715h-8.2557761c-3.5196645-.0656671-4.5383503.0675169-5.3928419-.5382853-.8544983-.6048774-1.4263372-1.6611004-1.4263372-2.8098124 0-.3459085.1903025-1.0220022.3190338-1.4594746.0643656-.2154992.0764949-.324636.3236979-.3736552 1.2071187-.2432457 1.7360494-.2053253 1.8358647-.3486831.326499-.540135.4570933-1.2596986.4570933-1.2596986L52.085308 8.2173601zm105.034396 26.8803226h2.845216V6.4039305h-2.845216v28.6937522zm-24.631508-8.4999137c-.657662-.7260378-1.388093-1.1394631-1.779889-1.3623613l-.03545-.0194227c-1.144616-.6511217-2.001908-.9295133-2.997267-1.2541493-.659532-.2136493-1.40675-.4568951-2.37785-.864771-1.20992-.5086889-1.594257-.7787565-1.914223-1.1283645-.168845-.1840528-.484152-.5281115-.605425-1.0386502-.136197-.5752808.029854-1.0848946.192172-1.4095306.427246-.8564471 1.318125-1.2217782 1.747234-1.3975071.238819-.0989631.902077-.3283355 1.905826-.3320351h.038251c1.917955 0 3.507542.824076 4.503832 1.5168178l.152983.1054373 1.632495-2.3103724-.152052-.1054373c-1.331179-.9258138-3.476756-2.0282813-6.137258-2.0282813h-.052243c-1.455254.008324-2.492589.3468333-2.980475.5475342-.63154.2589689-2.307888.9452364-3.209027 2.7524693-.522397 1.0460493-.667922 2.2197333-.411391 3.3046279.289187 1.2245528 1.000961 2.0005346 1.269622 2.2937244.666052.7260377 1.427268 1.2051302 2.908643 1.8266555 1.083983.4559702 1.892765.7186386 2.606403.9507857.913262.2959645 1.572793.5114636 2.465536 1.0183027l.039182.0221973c.288255.1646302.722966.4106507 1.073717.7981791.206164.2256729.458969.5512338.59796 1.0580729.179111.6594457-.057838 1.2421257-.147388 1.4622493-.062502.1526066-.309705.6881173-.897406 1.172759-.565312.466144-1.146486.6344738-1.494435.7352867-.934726.2682178-1.712729.1933018-2.613868.1072871-1.190326-.1146862-2.121312-.4060262-2.693158-.6298493-.861025-.3385093-1.659548-.7972542-2.372254-1.3623613l-.144593-.1146862-1.778958 2.2021604.145531.1146862c.932857.7417608 1.976719 1.3410888 3.102679 1.7831857 1.064388.4180498 2.264042.699216 3.466497.8148271.451497.0434698.962703.0934138 1.511222.0934138.760278 0 1.470183-.0980383 2.17076-.299664.486954-.1405831 1.500038-.432848 2.522436-1.2763467 1.066265-.8804942 1.554144-1.8923226 1.714599-2.2872501.169783-.4152751.682845-1.6805231.254668-3.2519093-.224814-.8231511-.625951-1.5454893-1.227638-2.2077097zm14.20367-11.5169011c-2.200608-.1859027-3.992626.6844177-4.661486 1.0673217-.714569.4097258-1.408606.8971422-2.338667 1.6463022V6.40356055h-2.846147V35.0982376h2.846147V21.5069957c.816247-.9137902 2.222059-2.1790382 3.575633-2.8181364.941253-.4439466 1.916086-.9036164 3.193173-.7963293 1.116625.0943387 1.95713.4337729 2.500053 1.0099787.290118.3089129.777066.8259257.777066 2.7395208v13.4562081h2.844284V21.6420295c0-3.0253115-1.049465-4.1416523-1.553206-4.6780879-.708973-.7519346-2.036426-1.6906968-4.33685-1.8830737zm46.534416 0c-2.197807-.1849778-3.991688.6844177-4.661479 1.0673217-.723898.4152751-1.427276.9100907-2.375056 1.6749738l-.167913-1.6333538h-2.641853v18.908428h2.846148V21.5069957c.816247-.9137902 2.221133-2.1790382 3.574702-2.8181364.942191-.4430217 1.916092-.9036164 3.194103-.7963293 1.116632.0943387 1.957131.4337729 2.500054 1.0099787.290118.3089129.777072.8259257.777072 2.7395208v13.4562081h2.844278V21.6420295c0-3.0253115-1.049465-4.1416523-1.553206-4.6780879-.708973-.7519346-2.036427-1.6906968-4.33685-1.8830737zm12.013322 8.4829882c.073701-.4485711.15299-.7500849.189371-.8878933l.012129-.0453196c.191234-.7334369.37501-1.2439755.843301-1.9996097.336758-.5429098.789194-1.057148 1.308797-1.4890711.309705-.2571191.828377-.6862675 1.640891-.9961053.23228-.0887893.863827-.3015138 1.714592-.3505329.861964-.0490191 1.535481.0887893 1.859186.1757289l.079289.0212724c.347025.0897143.82185.2145743 1.307865.5549334.942185.6631453 1.780828 1.8923226 2.137174 3.1307488.106349.3708804.244409.9914808.319972 1.8858484h-11.412567zm14.314683 1.4104555c0-1.5538133-.167913-2.9614942-.486015-4.0685861-.529863-1.8460782-1.766835-3.6320386-3.227684-4.6595901-.905803-.6372485-1.764966-.8619965-2.227661-.9831569l-.067167-.016648c-.493481-.1322591-1.509366-.3422089-2.764057-.2672929-1.201516.0702916-2.125044.3634813-2.568152.5336609-1.254691.4772426-2.059747 1.1440875-2.446879 1.4659488-.75095.6243-1.410482 1.3753098-1.905826 2.1734889-.648334 1.0460493-.933788 1.8488528-1.183792 2.8070377-.087693.3311102-.35449 1.3383142-.422588 2.9069257-.054106 1.2310271.004664 2.2900248.180043 3.2352612.135265.7315871.339559 1.8377542 1.069052 3.1002275.85543 1.4761226 1.791087 2.3316448 2.27337 2.7099244.546656.4300733 1.708059 1.2217782 3.348957 1.6980959.798523.2321471 1.620372.3449836 2.512183.3449836.394597 0 .742554-.0203476 1.021474-.0379205 1.378765-.0823151 2.434757-.3755048 2.94223-.5429097 1.041068-.3449836 2.015901-.8416489 2.897452-1.4751978l.15112-.1072871-1.671677-2.2844755-.150189.108212c-.645539.4642942-1.36104.8287005-2.126914 1.08212-.301315.0989631-1.120357.3375844-2.2146.4041764-.729493.0425449-1.555068.0934138-2.560687-.1988511-1.177271-.341284-1.998183-.8999168-2.382514-1.2014306-.259338-.2044004-.931931-.7981791-1.570936-1.9034213-.486954-.8416489-.626877-1.5972831-.739753-2.204935-.069036-.3755049-.113808-.7722822-.136196-1.2079049h14.4574v-1.4104555h.000006zm-114.27611 7.6297782c-.77614-.3616316-1.180997-.9581849-1.285477-1.1329889-.315307-.5197875-.35262-.9988799-.372214-1.2559991-.050374-.6437226.066235-1.2153039.345161-1.7017955.106343-.1849777.43191-.7510097 1.849851-1.5121933.70244-.3764297 1.718324-.8046533 4.374163-1.3845586 1.106365-.241396 2.256583-.4476462 3.420787-.6122764v4.9666532c-.634342.5632573-1.317194 1.0534484-2.032694 1.4603995l-.083022.0471693c-.815323.4642942-1.931016 1.1006178-3.460901 1.3216662-.97297.141508-1.85172.224748-2.755654-.1960764zm7.150342-17.0373778c-1.14928-.4254489-2.406772-.6400231-3.735163-.6400231-2.907706 0-5.415225 1.0173778-7.250151 2.9439213l-.128738.1341088 2.069075 1.9376422.126869-.1341089c1.284538-1.347563 3.076563-2.0597275 5.182945-2.0597275.9879 0 1.909565.1544565 2.739805.4615196 2.020565.74916 2.177287 2.0477039 2.177287 3.8003683v.1470574c-1.380628.1840528-2.737004.4208244-4.033672.7038404-2.829354.6178257-4.09151 1.1098666-5.114853 1.6592506-1.913285 1.0247769-2.61106 1.9737128-2.969276 2.5970879-.388071.6751689-.826514 1.7989089-.708974 3.312952.031711.4198995.107281 1.4030564.769607 2.4944252.269598.4439467 1.054129 1.5510386 2.514977 2.2326817.839575.391228 1.716462.5808302 2.682898.5808302.599824 0 1.168868-.0702915 1.694998-.1470573 2.131578-.3089129 3.71837-1.1792333 4.474916-1.6712742.109137-.0712164.368476-.2524946.72576-.5780555l.165113 1.7554391h2.643715V22.0104127c0-1.6065319 0-4.9500052-4.027138-6.4437007zm55.237217 17.0373778c-.776133-.3625564-1.18099-.9581849-1.286408-1.1329889-.315301-.5197875-.351682-.9998048-.371277-1.2569239-.050373-.6427978.065304-1.215304.344224-1.7008707.107287-.1859026.432848-.7510097 1.849857-1.5121933.703378-.3764297 1.719256-.8055782 4.374163-1.3845586 1.107303-.241396 2.256577-.4476462 3.420781-.6132013v4.9675781c-.633404.5623324-1.316256 1.0534484-2.032688 1.4603995l-.082097.0471693c-.815316.4642942-1.931941 1.1006178-3.460895 1.3216662-.972969.1405831-1.852651.224748-2.75566-.1960764zm7.150349-17.0383027c-1.150211-.424524-2.406772-.6390982-3.735164-.6390982-2.908643 0-5.415224 1.0173778-7.251089 2.9429964l-.127799.1350337 2.068144 1.9376422.127799-.1341089c1.284539-1.3484879 3.076557-2.0606524 5.182945-2.0606524.987901 0 1.909566.1544565 2.739805.4624445 2.020565.74916 2.17635 2.046779 2.17635 3.8003683v.1461325c-1.380622.1840528-2.736066.4208244-4.032734.7047653-2.829354.6178257-4.09151 1.1098666-5.114853 1.6592506-1.913285 1.0247769-2.611067 1.9737128-2.970215 2.596163-.38807.6760938-.826507 1.7998338-.708967 3.3138769.032649.4198995.108212 1.4030564.770538 2.4944252.268661.4439467 1.053191 1.5510386 2.514047 2.2317569.839567.3912279 1.717386.581755 2.682897.581755.599824 0 1.1698-.0702915 1.694991-.1470573 2.132517-.3089129 3.719309-1.1801582 4.474917-1.672199.110081-.0702916.369413-.2515698.726698-.5771307l.165112 1.7554391h2.642785V22.0104127c0-1.6065319 0-4.9500052-4.026207-6.4446256zM93.4142973 31.345871c-.4981452.4309982-1.2518966 1.0830448-2.4440849 1.3549622-1.085846.2487951-2.0597473.0638173-2.6978216-.0971134-.6427383-.1609306-1.5970518-.5142382-2.4897942-1.2763466-.8134529-.6936667-1.4142079-1.5047942-1.8349266-2.4833266-.5988986-1.3882582-.6194179-2.5850644-.6334168-3.3767693l-.0009249-.0554933c-.0149303-.8804942.0867546-2.2243577.6604632-3.6255643.2677289-.649272 1.094236-2.2669026 3.0121912-3.2519093.9151313-.4689186 1.9170172-.7362115 2.8983837-.7732071.0858165-.0036995.1688451-.0046244.2500041-.0046244 1.1352879 0 1.8349267.2987391 2.1875471.449496l.101685.0434697c.8918108.3718054 1.668876.932288 2.3097514 1.6657249v9.8805877c-.3684824.591004-.8125149 1.1117165-1.3181252 1.5501138l.1222042.1387333-.1231423-.1387333h.0000066zm1.3190567-15.080313c-.3955288-.2404711-.7929271-.4439466-1.2033862-.615976l-.081159-.0342208c-.5196025-.2219734-1.7360428-.7426858-3.6717229-.674244-1.3974145.0527186-2.8153617.4291484-4.0989753 1.0876693-2.6614338 1.3651359-3.8610807 3.528451-4.3405695 4.6965856-.7546829 1.8433035-.8890164 3.5922684-.8684971 4.735431l.0009381.0536436c.0158553.9507857.0429083 2.5406697.8600938 4.4376168.5970224 1.3845586 1.4468565 2.5332706 2.5970681 3.5155025 1.3106667 1.1172658 2.7052868 1.6342787 3.6437385 1.8701253.3610171.091564 1.2071121.3052133 2.2994917.3052133.5960909 0 1.1819287-.0647422 1.739782-.1933017 1.4645813-.3348098 2.4823224-1.3059431 3.1633115-1.9663138l.1632429 1.614856h2.6418526V6.40346806H94.733354V16.265558zM5.47402081 33.9936296c-.56903127 0-1.15897163-.1380727-1.76984091-.4142181-.61086927-.2761454-1.18407575-.6568891-1.71963265-1.1422377h-.07531238l-.17572888 1.2552063H.07663365v-17.874138H2.135172v4.8702005l-.05020825 2.2091632c.55229078-.4853487 1.15478981-.8911965 1.80749709-1.2175502.65270729-.3263536 1.32214845-.4895304 2.00833011-.4895304.78659816 0 1.48114345.1464363 2.08364249.4393222.60249903.2928859 1.10876337.7112792 1.51879964 1.2552063s.71964941 1.1966278.92885271 1.9581219c.2092032.761494.3138015 1.6108459.3138015 2.5480688 0 1.0376394-.1422545 1.9664855-.4267701 2.786558-.2845156.8200725-.66944117 1.5146112-1.15478982 2.0836425-.48534864.5690313-1.04600306.9999766-1.68197646 1.2928625-.6359734.2928859-1.30541457.4393222-2.00833011.4393222zm-.35145777-1.7321847c.50208253 0 .96650887-.1129686 1.39327902-.3389057.42677014-.2259372.79496179-.5439206 1.10458155-.9539568.30961976-.4100363.55229078-.9163006.72801967-1.5187997.17572888-.602499.26359332-1.2803104.26359332-2.0334342 0-.6694478-.05857849-1.2803104-.17572888-1.8326012-.11715039-.5522908-.30543134-1.0250808-.56484284-1.4183832-.25941151-.3933023-.59412879-.6987337-1.00416506-.9163006-.41003626-.2175735-.89956012-.3263536-1.46859139-.3263536-.98743117 0-2.07526563.5522908-3.26353642 1.6568723v6.4015522c.5355569.4686148 1.06692537.7991503 1.59411202.991613.52718665.1924628.99161299.2886975 1.39327901.2886975zm8.93706896 6.6776976c-.2845156 0-.5439205-.0209223-.7782279-.0627603-.2343074-.041838-.4518743-.1045983-.6527073-.188281l.401666-1.6317682.4518743.1129686c.1673587.041838.3263537.0627603.4769784.0627603.7029156 0 1.276122-.2468528 1.7196327-.7405717.4435106-.4937189.7907799-1.1171336 1.0418212-1.8702574l.2761454-.9037486-4.8953046-12.2257095h2.1338507l2.4853085 6.75301c.1840991.5355569.3807437 1.1003931.589947 1.6945285.2092032.5941354.4058478 1.1757055.589947 1.7447368h.1004165c.1840991-.5522908.359828-1.1296857.5271866-1.7321847.1673586-.6024991.3347239-1.1715237.5020825-1.7070806l2.184059-6.75301h2.0083301L18.628583 34.6965451c-.2175735.6024991-.4602379 1.1631535-.7280196 1.6819765-.2677818.518823-.5857586.9665089-.9539569 1.3430708-.3681982.3765619-.7865915.6736296-1.2552063.8911965-.4686147.2175734-1.0125287.3263536-1.6317682.3263536z"/>
  </g>
</svg>
