<svg width="336" height="63" xmlns="http://www.w3.org/2000/svg">
  <g fill="#06313D" fill-rule="evenodd">
    <path d="M83.47476.69314l-28.30051 9.0048v2.9764c0 12.2542 1.47701 21.5222 4.51436 28.3304.5507 1.2348 1.18189 2.4626 1.87521 3.6456l.14686.2506.24852-.1526c.3756-.2338.97573-.6342 1.55468-1.022.50693-.3374.98561-.6566 1.29203-.8498l.22734-.1442-.13414-.2324c-.586-1.0108-1.11694-2.051-1.57869-3.087-2.81-6.2972-4.17546-15.043-4.17546-26.7386v-.1064l24.3298-7.7406 24.32839 7.7364v.1106c0 4.242-.1864 8.1662-.55353 11.6648l-.03248.308h3.98766l.02542-.2506c.36007-3.563.54364-7.5082.54364-11.7222v-2.9806L83.47476.69314zM107.02948 27.91376h-.24146l-.03813.2366c-.68767 4.3708-1.73824 8.1592-3.12206 11.2616-1.41912 3.1822-3.3254 6.1222-5.66237 8.7402-1.8865 2.114-4.0625 4.0278-6.46723 5.6896-4.08933 2.8238-7.60253 4.0278-7.99509 4.158l-.02965.0112-.07343-.0266c-.38408-.126-3.85916-1.3146-7.9626-4.151-2.40333-1.6618-4.5765-3.5742-6.4616-5.6882-.59447-.6664-1.18895-1.3972-1.8145-2.2316l-.16661-.2212-3.22656 2.2932.17086.2296c.71026.9492 1.38523 1.7794 2.06302 2.5382 2.09408 2.3478 4.50447 4.4702 7.1648 6.3084 4.46634 3.0884 8.26337 4.4226 8.97505 4.6564.02965.0098.73427.2534 1.08728.35.09038.0266.18357.0476.18357.0476l.0593.0126.06073-.0126s.09884-.021.19062-.0476c.3516-.0966 1.05623-.3402 1.08305-.35.7131-.2338 4.496-1.5624 8.96235-4.648 2.66315-1.8396 5.07636-3.962 7.17044-6.3098 2.6095-2.9204 4.73605-6.202 6.32039-9.7552 1.58998-3.5644 2.7281-7.707 3.4779-12.6644l.0466-.2982-.305-.0224c-1.17908-.0854-2.52618-.105-3.44967-.1064"/>
    <path d="M81.84129 12.43858s.88677 2.2708 1.35275 2.471l6.40652 2.8196s-3.29434.7168-5.11166 1.2614l-.42926.1316s.69897 1.1634 1.77637 1.8172c1.19036-.3374 3.37906-.8946 3.37906-.8946-3.091 6.0284-9.44527 9.9694-16.35307 9.9694-.31772 0-1.63517-.0182-2.46405.0504-.71591.0616-1.06187.6482-.35725.9576 1.26097.672 2.17457 1.7962 2.58266 3.108.257.8162-.19486 1.309-.7611 1.7556-2.76764 2.1168-15.11752 11.1888-15.11752 11.1888.56483.9786 1.2059 1.9208 1.2059 1.9208l15.55808-11.025c8.37634-5.5902 18.16192-8.5442 28.30193-8.5442h12.13807c.13414-.8456.35866-2.2484.35866-2.2484h-12.49673c-5.3277-.0994-6.86968.1022-8.16312-.8148-1.29345-.9156-2.15904-2.5144-2.15904-4.2532 0-.5236.28806-1.547.48292-2.2092.09743-.3262.11579-.4914.48998-.5656 1.82721-.3682 2.62785-.3108 2.77894-.5278.49422-.8176.6919-1.9068.6919-1.9068l-14.09094-4.4618zM240.83137 53.1272h4.30679V9.6936h-4.30679zM203.54677 40.26092c-.9955-1.099-2.10115-1.7248-2.69421-2.0622l-.05366-.0294c-1.7326-.9856-3.03028-1.407-4.53695-1.8984-.99833-.3234-2.12939-.6916-3.59934-1.309-1.83145-.77-2.41322-1.1788-2.89755-1.708-.25558-.2786-.73286-.7994-.91643-1.5722-.20616-.8708.04519-1.6422.29089-2.1336.64672-1.2964 1.99524-1.8494 2.64478-2.1154.3615-.1498 1.36547-.497 2.88484-.5026h.0579c2.9032 0 5.30935 1.2474 6.81743 2.296l.23157.1596 2.4711-3.4972-.23016-.1596c-2.015-1.4014-5.26275-3.0702-9.28994-3.0702h-.07908c-2.20281.0126-3.77302.525-4.51153.8288-.95596.392-3.49344 1.4308-4.85749 4.1664-.79075 1.5834-1.01103 3.36-.62272 5.0022.43774 1.8536 1.51515 3.0282 1.92182 3.472 1.0082 1.099 2.16045 1.8242 4.4028 2.765 1.64082.6902 2.86507 1.0878 3.9453 1.4392 1.3824.448 2.38073.7742 3.73207 1.5414l.05931.0336c.43633.2492 1.09435.6216 1.62528 1.2082.31207.3416.69474.8344.90513 1.6016.27112.9982-.08755 1.8802-.2231 2.2134-.09461.231-.4688 1.0416-1.3584 1.7752-.85571.7056-1.73543.9604-2.26212 1.113-1.41489.406-2.59255.2926-3.9566.1624-1.80179-.1736-3.21102-.6146-4.07662-.9534-1.30333-.5124-2.51205-1.2068-3.59087-2.0622l-.21887-.1736-2.6928 3.3334.22029.1736c1.41206 1.1228 2.99215 2.03 4.69651 2.6992 1.61116.6328 3.42707 1.0584 5.24722 1.2334.68343.0658 1.45724.1414 2.28753.1414 1.15083 0 2.22541-.1484 3.28587-.4536.7371-.2128 2.2706-.6552 3.8182-1.932 1.614-1.3328 2.3525-2.8644 2.59538-3.4622.257-.6286 1.03362-2.5438.38549-4.9224-.3403-1.246-.9475-2.3394-1.85827-3.3418M225.0468 22.82784c-3.33105-.2814-6.04362 1.036-7.05607 1.6156-1.08164.6202-2.1322 1.358-3.54003 2.492V9.69304h-4.3082v43.435h4.3082v-20.573c1.23555-1.3832 3.36352-3.2984 5.41242-4.2658 1.42477-.672 2.90037-1.3678 4.83349-1.2054 1.69023.1428 2.9625.6566 3.78432 1.5288.43915.4676 1.17624 1.2502 1.17624 4.1468v20.3686h4.30538v-20.3686c0-4.5794-1.58857-6.2692-2.35108-7.0812-1.07317-1.1382-3.08253-2.5592-6.56467-2.8504M295.48573 22.82784c-3.32681-.28-6.0422 1.036-7.05606 1.6156-1.09576.6286-2.16046 1.3776-3.59511 2.5354l-.25417-2.4724h-3.99896v28.6216h4.3082v-20.573c1.23555-1.3832 3.36212-3.2984 5.41101-4.2658 1.42619-.6706 2.90038-1.3678 4.8349-1.2054 1.69024.1428 2.9625.6566 3.78432 1.5288.43915.4676 1.17625 1.2502 1.17625 4.1468v20.3686h4.30537v-20.3686c0-4.5794-1.58857-6.2692-2.35108-7.0812-1.07317-1.1382-3.08253-2.5592-6.56467-2.8504M313.67024 35.6685c.11156-.679.23158-1.1354.28665-1.344l.01836-.0686c.28947-1.1102.56765-1.883 1.2765-3.0268.50975-.8218 1.1946-1.6002 1.98112-2.254.4688-.3892 1.25391-1.0388 2.48381-1.5078.3516-.1344 1.30757-.4564 2.59537-.5306 1.30475-.0742 2.32425.1344 2.81424.266l.12002.0322c.52529.1358 1.24403.3248 1.97971.84 1.42618 1.0038 2.69563 2.8644 3.23503 4.739.16098.5614.36996 1.5008.48434 2.8546h-17.27515zm21.66807 2.135c0-2.352-.25417-4.4828-.73568-6.1586-.80205-2.7944-2.67445-5.4978-4.88573-7.0532-1.37111-.9646-2.67162-1.3048-3.372-1.4882l-.10167-.0252c-.74698-.2002-2.28472-.518-4.18394-.4046-1.81873.1064-3.21667.5502-3.8874.8078-1.89922.7224-3.11783 1.7318-3.70383 2.219-1.13671.945-2.13504 2.0818-2.88484 3.29-.98138 1.5834-1.41347 2.7986-1.7919 4.249-.13274.5012-.53659 2.0258-.63967 4.4002-.0819 1.8634.00706 3.4664.27253 4.8972.20475 1.1074.51399 2.7818 1.61822 4.6928 1.29486 2.2344 2.71116 3.5294 3.44119 4.102.82747.651 2.58548 1.8494 5.0693 2.5704 1.20872.3514 2.45275.5222 3.80268.5222.5973 0 1.124-.0308 1.5462-.0574 2.08703-.1246 3.68548-.5684 4.45364-.8218 1.57586-.5222 3.05146-1.274 4.38586-2.233l.22875-.1624-2.53041-3.458-.22734.1638c-.97715.7028-2.0602 1.2544-3.2195 1.638-.4561.1498-1.69588.511-3.35223.6118-1.10423.0644-2.3539.1414-3.8761-.301-1.78203-.5166-3.02464-1.3622-3.6064-1.8186-.39256-.3094-1.41066-1.2082-2.37792-2.8812-.7371-1.274-.9489-2.4178-1.11976-3.3376-.1045-.5684-.17227-1.169-.20616-1.8284h21.8841v-2.135zM162.35909 49.35266c-1.17484-.5474-1.78767-1.4504-1.94582-1.715-.47728-.7868-.53376-1.512-.56342-1.9012-.07625-.9744.10026-1.8396.52247-2.576.16097-.28.65378-1.1368 2.80011-2.289 1.06328-.5698 2.60102-1.218 6.62115-2.0958 1.6747-.3654 3.41578-.6776 5.17803-.9268v7.518c-.9602.8526-1.99383 1.5946-3.07688 2.2106l-.12567.0714c-1.23415.7028-2.92297 1.666-5.23875 2.0006-1.47278.2142-2.80294.3402-4.17122-.2968m10.82344-25.7894c-1.73966-.644-3.64312-.9688-5.6539-.9688-4.40138 0-8.197 1.54-10.97452 4.4562l-.19487.203 3.13195 2.933.19204-.203c1.9444-2.0398 4.65698-3.1178 7.8454-3.1178 1.49538 0 2.8905.2338 4.14723.6986 3.05852 1.134 3.29575 3.0996 3.29575 5.7526v.2226c-2.08985.2786-4.14299.637-6.10575 1.0654-4.28278.9352-6.1933 1.68-7.74233 2.5116-2.89613 1.5512-3.95235 2.9876-4.49458 3.9312-.58742 1.022-1.25109 2.723-1.07317 5.0148.048.6356.16239 2.1238 1.16495 3.7758.40809.672 1.59563 2.3478 3.80691 3.3796 1.27086.5922 2.5982.8792 4.06109.8792.90795 0 1.76931-.1064 2.56571-.2226 3.22656-.4676 5.62848-1.785 6.77366-2.5298.1652-.1078.55776-.3822 1.09858-.875l.24993 2.6572h4.00178v-19.81c0-2.4318 0-7.4928-6.09586-9.7538M256.79485 49.35266c-1.17483-.5488-1.78766-1.4504-1.94723-1.715-.47727-.7868-.53234-1.5134-.562-1.9026-.07625-.973.09885-1.8396.52105-2.5746.1624-.2814.6552-1.1368 2.80012-2.289 1.0647-.5698 2.60243-1.2194 6.62115-2.0958 1.67612-.3654 3.41577-.6776 5.17802-.9282v7.5194c-.95878.8512-1.99241 1.5946-3.07687 2.2106l-.12427.0714c-1.23414.7028-2.92437 1.666-5.23874 2.0006-1.47278.2128-2.80435.3402-4.17123-.2968m10.82345-25.7908c-1.74107-.6426-3.64312-.9674-5.6539-.9674-4.4028 0-8.197 1.54-10.97594 4.4548l-.19345.2044 3.13054 2.933.19345-.203c1.9444-2.0412 4.65697-3.1192 7.8454-3.1192 1.49538 0 2.8905.2338 4.14723.7 3.05852 1.134 3.29433 3.0982 3.29433 5.7526v.2212c-2.08984.2786-4.14157.637-6.10433 1.0668-4.28278.9352-6.1933 1.68-7.74233 2.5116-2.89613 1.5512-3.95236 2.9876-4.496 3.9298-.58742 1.0234-1.25108 2.7244-1.07316 5.0162.04942.6356.1638 2.1238 1.16636 3.7758.40667.672 1.59421 2.3478 3.8055 3.3782 1.27085.5922 2.5996.8806 4.06109.8806.90795 0 1.77072-.1064 2.5657-.2226 3.22798-.4676 5.6299-1.7864 6.77366-2.5312.16663-.1064.55918-.3808 1.1-.8736l.24993 2.6572h4.00037v-19.81c0-2.4318 0-7.4928-6.09445-9.7552M144.40079 47.4481c-.75404.6524-1.89499 1.6394-3.6996 2.051-1.64364.3766-3.11783.0966-4.08368-.147-.97291-.2436-2.41745-.7784-3.76879-1.932-1.23132-1.05-2.14068-2.2778-2.77752-3.759-.90655-2.1014-.93761-3.913-.9588-5.1114l-.0014-.084c-.0226-1.3328.13132-3.367.99974-5.488.40526-.9828 1.65634-3.4314 4.55954-4.9224 1.38523-.7098 2.90178-1.1144 4.38727-1.1704.1299-.0056.25558-.007.37843-.007 1.71848 0 2.77752.4522 3.31128.6804l.15392.0658c1.34993.5628 2.52617 1.4112 3.49626 2.5214v14.9562c-.55777.8946-1.2299 1.6828-1.99524 2.3464l.18498.21-.1864-.21zm1.99665-22.827c-.59871-.364-1.20025-.672-1.82156-.9324l-.12285-.0518c-.78652-.336-2.62784-1.1242-5.55787-1.0206-2.11526.0798-4.2616.6496-6.2046 1.6464-4.0286 2.0664-5.8445 5.341-6.5703 7.1092-1.14236 2.7902-1.3457 5.4376-1.31464 7.168l.00142.0812c.024 1.4392.06495 3.8458 1.30192 6.7172.90371 2.0958 2.1901 3.8346 3.93117 5.3214 1.98395 1.6912 4.09498 2.4738 5.51551 2.8308.54647.1386 1.8272.462 3.48073.462.9023 0 1.78908-.098 2.6335-.2926 2.21693-.5068 3.75748-1.9768 4.78829-2.9764l.2471 2.4444h3.99896V9.6929h-4.30678v14.9282zM11.286 51.456c-.86134 0-1.75433-.209-2.679-.627-.92467-.418-1.79233-.99433-2.603-1.729H5.89L5.624 51H3.116V23.944h3.116v7.372l-.076 3.344c.836-.73467 1.748-1.349 2.736-1.843.988-.494 2.00133-.741 3.04-.741 1.19067 0 2.242.22166 3.154.665.912.44334 1.67833 1.07666 2.299 1.9.62067.82334 1.08933 1.81133 1.406 2.964.31667 1.15267.475 2.43833.475 3.857 0 1.57067-.21533 2.97666-.646 4.218s-1.01333 2.29266-1.748 3.154c-.73467.86134-1.58333 1.51366-2.546 1.957-.96267.44334-1.976.665-3.04.665zm-.532-2.622c.76 0 1.463-.171 2.109-.513.646-.342 1.20333-.82333 1.672-1.444.46867-.62067.836-1.387 1.102-2.299.266-.912.399-1.938.399-3.078 0-1.01334-.08867-1.938-.266-2.774-.17733-.836-.46233-1.55166-.855-2.147-.39267-.59534-.89933-1.05767-1.52-1.387-.62067-.32934-1.36166-.494-2.223-.494-1.49467 0-3.14132.836-4.94 2.508v9.69c.81067.70934 1.615 1.20967 2.413 1.501.798.29133 1.501.437 2.109.437zm13.528 10.108c-.43067 0-.82333-.03167-1.178-.095-.35467-.06333-.684-.15833-.988-.285l.608-2.47.684.171c.25333.06333.494.095.722.095 1.064 0 1.93166-.37366 2.603-1.121.67134-.74734 1.197-1.691 1.577-2.831l.418-1.368-7.41-18.506h3.23l3.762 10.222c.27867.81067.57633 1.66566.893 2.565s.61433 1.77966.893 2.641h.152c.27867-.836.54467-1.71.798-2.622.25333-.912.50667-1.77333.76-2.584l3.306-10.222h3.04L31.198 52.52c-.32934.912-.69666 1.76066-1.102 2.546-.40534.78534-.88666 1.463-1.444 2.033-.55734.57-1.19066 1.01967-1.9 1.349-.70934.32934-1.53266.494-2.47.494z"/>
  </g>
</svg>
